<?xml version="1.0" encoding="UTF-8"?>
<svg width="306.02mm" height="34.447mm" version="1.1" viewBox="0 0 306.02 34.447" xmlns="http://www.w3.org/2000/svg">
 <g fill="#336c67">
  <path d="m9.3839 34.447q-4.4803 0-8.3961-1.6933-0.42333-0.17639-0.70556-0.56444-0.28222-0.42333-0.28222-0.88194 0-0.59972 0.38806-1.0231 0.42333-0.45861 1.0583-0.45861 0.35278 0 0.67028 0.14111 3.2456 1.4464 6.9497 1.4464 6.1736 0 6.1736-4.0569 0-1.0583-0.81139-1.7639-0.77611-0.70556-1.9403-1.0936-1.1642-0.42333-3.3161-0.98778-2.8575-0.74083-4.6214-1.4111-1.7639-0.70556-3.0339-2.0814-1.27-1.3758-1.27-3.6689 0-2.0108 1.0583-3.6336 1.0583-1.6581 3.1044-2.6106 2.0814-0.98778 4.9742-0.98778 3.8806 0 7.0203 1.1642 0.98778 0.35278 0.98778 1.4111 0 0.56444-0.38806 1.0231-0.38806 0.45861-1.0231 0.45861-0.21167 0-0.56444-0.14111-2.7517-0.9525-5.6797-0.9525-2.7869 0-4.5508 1.0583-1.7286 1.0583-1.7286 2.9633 0 1.27 0.81139 2.0814 0.84667 0.77611 2.0814 1.2347 1.27 0.42333 3.4219 0.91722 2.7869 0.67028 4.4803 1.3406 1.7286 0.67028 2.9281 2.0814 1.2347 1.4111 1.2347 3.81 0 1.9756-1.1289 3.5631-1.1289 1.5522-3.175 2.4342-2.0461 0.88194-4.7272 0.88194z"/>
  <path d="m33.663 34.447q-3.5278 0-6.35-1.5169-2.7869-1.5522-4.4097-4.4097-1.5875-2.8928-1.5875-6.7381 0-3.8453 1.5875-6.7028 1.6228-2.8928 4.4097-4.4097 2.8222-1.5522 6.35-1.5522 2.3989 0 4.2686 0.56444 1.905 0.56444 3.7747 1.6228 0.77611 0.42333 0.77611 1.3406 0 0.52917-0.38806 0.9525-0.38806 0.38806-1.0231 0.38806-0.35278 0-0.635-0.14111-1.5522-0.81139-3.0339-1.2347-1.4817-0.42333-3.4219-0.42333-3.0339 0-5.1858 1.27-2.1167 1.2347-3.2103 3.4219-1.0583 2.1519-1.0583 4.9036 0 2.7517 1.0583 4.9389 1.0936 2.1519 3.2103 3.4219 2.1519 1.2347 5.1858 1.2347 1.9403 0 3.4219-0.42333 1.4817-0.42333 3.0339-1.2347 0.28222-0.14111 0.635-0.14111 0.635 0 1.0231 0.38806 0.38806 0.38806 0.38806 0.9525 0 0.91722-0.77611 1.3406-1.8697 1.0583-3.7747 1.6228-1.8697 0.56444-4.2686 0.56444z"/>
  <path d="m48.385 34.27q-0.67028 0-1.1289-0.45861-0.45861-0.45861-0.45861-1.1289v-21.766q0-0.67028 0.45861-1.1289 0.45861-0.49389 1.1289-0.49389t1.1289 0.49389q0.49389 0.45861 0.49389 1.1289v9.3839h13.37v-9.3839q0-0.67028 0.45861-1.1289 0.45861-0.49389 1.1289-0.49389 0.67028 0 1.1289 0.49389 0.49389 0.45861 0.49389 1.1289v21.766q0 0.67028-0.49389 1.1289-0.45861 0.45861-1.1289 0.45861-0.67028 0-1.1289-0.45861-0.45861-0.45861-0.45861-1.1289v-9.3839h-13.37v9.3839q0 0.67028-0.49389 1.1289-0.45861 0.45861-1.1289 0.45861z"/>
 </g>
 <path d="m90.344 10.773c-0.0051 0.03126-0.0095 0.08586-0.01497 0.1018-0.27026 0.78198-1.3243 1.4559-2.7874 1.9146 0.41658 0.16826 0.81669 0.36523 1.1963 0.59686 1.3876 0.84667 2.4459 1.999 3.175 3.4572 0.72908 1.4582 1.0935 3.1043 1.0935 4.9387 0 1.8344-0.3644 3.4811-1.0935 4.9392-0.72908 1.4582-1.7874 2.6105-3.175 3.4572-1.3876 0.84667-3.0226 1.2702-4.9041 1.2702-1.905 0-3.5511-0.42354-4.9387-1.2702-1.3641-0.84667-2.4108-1.999-3.1399-3.4572-0.72908-1.4581-1.0935-3.1048-1.0935-4.9392 0-1.8344 0.3644-3.4806 1.0935-4.9387 0.72908-1.4581 1.7758-2.6105 3.1399-3.4572 0.19744-0.12047 0.40186-0.22998 0.60978-0.33331-1.5132-0.32498-2.7164-0.83892-3.3021-1.4506l-0.05839-0.06098c-0.53197 0.40513-1.0204 0.85245-1.4661 1.3415 0.0027 0.62531-0.02265 1.2052-0.08578 1.4351-0.32467 1.1821-1.266 2.0719-1.9549 1.8474-0.01074-0.0035-0.02703-0.01165-0.03824-0.0155-0.72255 1.6785-1.1081 3.5539-1.1477 5.6322 0.04704 2.4694 0.5762 4.6569 1.5875 6.5619 1.0113 1.905 2.4456 3.3985 4.3036 4.4803 1.858 1.0819 4.0216 1.6226 6.4911 1.6226 2.4694 0 4.6215-0.54079 6.4559-1.6226 1.858-1.0819 3.2928-2.5753 4.3041-4.4803 1.0348-1.9285 1.5756-4.1159 1.6226-6.5619-0.04704-2.4459-0.58782-4.6212-1.6226-6.5262-1.0013-1.9095-2.4185-3.4035-4.2499-4.4829z" fill="#fca311"/>
 <g fill="#336c67">
  <path d="m111.97 34.447q-3.7042 0-6.4911-1.6228-2.787-1.6228-4.3039-4.4803-1.5169-2.8575-1.5875-6.5617 0.07055-3.7042 1.5875-6.5617 1.5169-2.8575 4.3039-4.4803 2.787-1.6228 6.4911-1.6228t6.4558 1.6228q2.787 1.6228 4.3039 4.5156 1.5522 2.8575 1.6228 6.5264-0.0705 3.6689-1.6228 6.5617-1.517 2.8575-4.3039 4.4803-2.7517 1.6228-6.4558 1.6228zm0-2.9986q2.8222 0 4.9036-1.27t3.175-3.4572q1.0936-2.1872 1.0936-4.9389 0-2.7517-1.0936-4.9389-1.0936-2.1872-3.175-3.4572t-4.9036-1.27q-2.8575 0-4.9389 1.27-2.0461 1.27-3.1397 3.4572-1.0936 2.1872-1.0936 4.9389 0 2.7517 1.0936 4.9389 1.0936 2.1872 3.1397 3.4572 2.0814 1.27 4.9389 1.27z"/>
  <path d="m131.42 34.094q-0.91723 0-1.5875-0.635-0.635-0.67028-0.635-1.5875v-20.955q0-0.67028 0.45862-1.1289 0.45861-0.49389 1.1289-0.49389 0.67028 0 1.1289 0.49389 0.49389 0.45861 0.49389 1.1289v19.967h11.536q0.67028 0 1.1289 0.49389 0.49389 0.45861 0.49389 1.1289t-0.49389 1.1289q-0.45861 0.45861-1.1289 0.45861z"/>
  <path d="m156.76 34.447q-4.4803 0-8.3961-1.6933-0.42334-0.17639-0.70556-0.56444-0.28222-0.42333-0.28222-0.88194 0-0.59972 0.38805-1.0231 0.42334-0.45861 1.0583-0.45861 0.35278 0 0.67028 0.14111 3.2456 1.4464 6.9497 1.4464 6.1736 0 6.1736-4.0569 0-1.0583-0.81139-1.7639-0.77611-0.70556-1.9403-1.0936-1.1642-0.42333-3.3161-0.98778-2.8575-0.74083-4.6214-1.4111-1.7639-0.70556-3.0339-2.0814-1.27-1.3758-1.27-3.6689 0-2.0108 1.0583-3.6336 1.0583-1.6581 3.1044-2.6106 2.0814-0.98778 4.9742-0.98778 3.8806 0 7.0203 1.1642 0.98777 0.35278 0.98777 1.4111 0 0.56444-0.38805 1.0231-0.38806 0.45861-1.0231 0.45861-0.21166 0-0.56444-0.14111-2.7517-0.9525-5.6797-0.9525-2.7869 0-4.5508 1.0583-1.7286 1.0583-1.7286 2.9633 0 1.27 0.81139 2.0814 0.84667 0.77611 2.0814 1.2347 1.27 0.42333 3.422 0.91722 2.787 0.67028 4.4803 1.3406 1.7286 0.67028 2.9281 2.0814 1.2347 1.4111 1.2347 3.81 0 1.9756-1.1289 3.5631-1.1289 1.5522-3.175 2.4342t-4.7272 0.88194z"/>
  <path d="m171.76 34.27q-0.67028 0-1.1289-0.45861-0.45861-0.45861-0.45861-1.1289v-21.59q0-0.67028 0.45861-1.1289 0.45861-0.49389 1.1289-0.49389h8.0433q3.3514 0 5.4681 1.1289 2.1167 1.1289 3.0339 2.8928t0.91722 3.81q0 2.0461-0.91722 3.81t-3.0339 2.8928-5.4681 1.1289h-6.4206v7.5494q0 0.67028-0.49389 1.1289-0.45861 0.45861-1.1289 0.45861zm7.7258-12.171q3.5983 0 5.0447-1.3758 1.4817-1.3758 1.4817-3.4219 0-2.0461-1.4817-3.4219-1.4464-1.3758-5.0447-1.3758h-6.1031v9.5956z"/>
  <path d="m195.57 34.094q-0.91722 0-1.5875-0.635-0.635-0.67028-0.635-1.5875v-20.955q0-0.67028 0.45861-1.1289 0.45861-0.49389 1.1289-0.49389t1.1289 0.49389q0.49389 0.45861 0.49389 1.1289v19.967h11.536q0.67028 0 1.1289 0.49389 0.49389 0.45861 0.49389 1.1289t-0.49389 1.1289q-0.45861 0.45861-1.1289 0.45861z"/>
  <path d="m214.73 34.27q-0.67028 0-1.1289-0.45861-0.45861-0.45861-0.45861-1.1289v-21.766q0-0.67028 0.45861-1.1289 0.45861-0.49389 1.1289-0.49389 0.67027 0 1.1289 0.49389 0.49389 0.45861 0.49389 1.1289v21.766q0 0.67028-0.49389 1.1289-0.45862 0.45861-1.1289 0.45861z"/>
  <path d="m229.98 34.27q-0.67028 0-1.1289-0.45861-0.45861-0.45861-0.45861-1.1289v-20.214h-7.1967q-0.635 0-1.0583-0.42333-0.42333-0.42333-0.42333-1.0583 0-0.635 0.42333-1.0583 0.42334-0.45861 1.0583-0.45861h17.568q0.635 0 1.0583 0.45861 0.45862 0.42333 0.45862 1.0583 0 0.635-0.45862 1.0583-0.42333 0.42333-1.0583 0.42333h-7.1614v20.214q0 0.67028-0.49389 1.1289-0.45861 0.45861-1.1289 0.45861z"/>
  <path d="m250.94 34.27q-0.67027 0-1.1289-0.45861-0.45861-0.45861-0.45861-1.1289v-20.214h-7.1967q-0.635 0-1.0583-0.42333-0.42334-0.42333-0.42334-1.0583 0-0.635 0.42334-1.0583 0.42333-0.45861 1.0583-0.45861h17.568q0.635 0 1.0583 0.45861 0.45861 0.42333 0.45861 1.0583 0 0.635-0.45861 1.0583-0.42333 0.42333-1.0583 0.42333h-7.1614v20.214q0 0.67028-0.49389 1.1289-0.45861 0.45861-1.1289 0.45861z"/>
  <path d="m266.2 34.094q-0.67028 0-1.1289-0.45861-0.45861-0.45861-0.45861-1.1289v-21.414q0-0.67028 0.45861-1.1289 0.45861-0.49389 1.1289-0.49389h14.146q0.635 0 1.0583 0.45861 0.45862 0.42333 0.45862 1.0583 0 0.635-0.45862 1.0583-0.42333 0.42333-1.0583 0.42333h-12.524v7.7964h11.254q0.635 0 1.0583 0.45861 0.45861 0.42333 0.45861 1.0583 0 0.635-0.45861 1.0583-0.42333 0.42333-1.0583 0.42333h-11.254v7.8317h12.524q0.635 0 1.0583 0.45861 0.45862 0.42333 0.45862 1.0583 0 0.635-0.45862 1.0583-0.42333 0.42333-1.0583 0.42333z"/>
  <path d="m288.2 34.27q-0.67028 0-1.1289-0.45861-0.45861-0.45861-0.45861-1.1289v-21.59q0-0.67028 0.45861-1.1289 0.45861-0.49389 1.1289-0.49389h8.2197q4.7978 0 7.1967 1.9756 2.3989 1.9756 2.3989 5.1858 0 2.1167-1.1994 3.8806-1.1642 1.7286-3.422 2.5047 2.54 0.67028 3.4572 3.175 0.9525 2.4694 0.9525 4.8683v1.6228q0 0.67028-0.45861 1.1289-0.45861 0.45861-1.1289 0.45861-0.74083 0-1.1994-0.42333-0.42334-0.45861-0.42334-1.1642v-1.0583q0-1.7639-0.3175-3.2456-0.3175-1.5169-1.5169-2.6811-1.1994-1.1994-3.6336-1.1994h-7.3025v8.1844q0 0.67028-0.49389 1.1289-0.45861 0.45861-1.1289 0.45861zm8.0081-12.806q3.0339 0 4.7978-1.1994 1.7992-1.1994 1.7992-3.3867 0-2.1167-1.5522-3.2456-1.517-1.1289-5.2211-1.1289h-6.2089v8.9606z"/>
 </g>
 <path d="m83.014 0-5.6771 1.8971c-6.2297 2.0818-5.8381 1.9296-5.8604 2.3201-0.01901 0.33223 0.04363 0.35204 1.4403 0.81757 1.4918 0.49724 1.3828 0.42339 1.1474 0.77686-0.36499 0.54827-0.59577 1.2582-0.73322 2.2558-0.07803 0.56628-0.08197 0.57774-0.23578 0.68097-0.4723 0.31701-0.64074 1.0444-0.36524 1.5771 0.0725 0.14021 0.41957 0.47183 0.49378 0.47183 0.06926 0 0.05735 0.17192-0.04684 0.67832-0.26722 1.2986-0.76073 2.2384-1.7432 3.3192-0.40274 0.443-0.41586 0.46419-0.33825 0.54996 0.16667 0.18418 1.0782 0.66882 1.5426 0.82014l-1.82e-4 9e-5c0.68891 0.2245 1.6303-0.665 1.955-1.8471 0.15543-0.56584 0.08857-3.2459-0.08811-3.5318-0.01246-0.0202 0.0427-0.10209 0.12269-0.18208 0.48547-0.48548 0.48158-1.247-0.0089-1.7374-0.2059-0.20589-0.21415-0.27714-0.10586-0.90889 0.30399-1.7729 0.71615-2.1384 3.8281-3.3949 4.2793-1.7278 4.8377-1.8986 5.0783-1.467 0.21917 0.39329 0.03762 0.67681-0.6689 0.90934-1.2455 0.41004-5.845 2.2289-5.8631 2.3187-0.01204 0.0602 5.9149 2.0376 6.1078 2.0376 0.08003 0 2.6794-0.84568 5.7764-1.8793 6.1053-2.0376 5.77-1.9062 5.7802-2.2651 0.0108-0.38012 0.36936-0.23815-5.8604-2.3201zm7.3425 7.1904c-0.03222 0-1.6395 0.527-3.5715 1.1711-4.3225 1.4411-3.23 1.4377-7.4702 0.024-1.8925-0.63097-3.4588-1.1294-3.4806-1.1075-0.06097 0.061-0.17143 0.74487-0.17127 1.0601 1.41e-4 0.27327 0.0051 0.28451 0.1807 0.40586 0.70462 0.48706 0.87124 1.6518 0.34602 2.4189l-0.16999 0.24821 0.18298 0.19104c0.88276 0.92189 3.1642 1.6244 5.8042 1.7873l9.8e-5 -9e-5c3.9416 0.24327 7.7686-0.91335 8.3221-2.515 0.10713-0.31002 0.13227-3.6838 0.02743-3.6838z" fill="#c37400" style="mix-blend-mode:normal"/>
</svg>
