<?xml version="1.0" encoding="UTF-8"?>
<svg width="25.159mm" height="34.447mm" version="1.1" viewBox="0 0 25.159 34.447" xmlns="http://www.w3.org/2000/svg">
 <g>
  <path d="m19.286 10.773c-0.0051 0.03126-0.0095 0.08586-0.01497 0.1018-0.27026 0.78198-1.3243 1.4559-2.7874 1.9146 0.41658 0.16826 0.81669 0.36523 1.1963 0.59686 1.3876 0.84667 2.4459 1.999 3.175 3.4572 0.72908 1.4582 1.0935 3.1043 1.0935 4.9387 0 1.8344-0.3644 3.4811-1.0935 4.9392-0.72908 1.4582-1.7874 2.6105-3.175 3.4572-1.3876 0.84667-3.0226 1.2702-4.9041 1.2702-1.905 0-3.5511-0.42354-4.9387-1.2702-1.3641-0.84667-2.4108-1.999-3.1399-3.4572-0.72908-1.4581-1.0935-3.1048-1.0935-4.9392 0-1.8344 0.3644-3.4806 1.0935-4.9387 0.72908-1.4581 1.7758-2.6105 3.1399-3.4572 0.19744-0.12047 0.40186-0.22998 0.60978-0.33331-1.5132-0.32498-2.7164-0.83892-3.3021-1.4506l-0.05839-0.06098c-0.53197 0.40513-1.0204 0.85245-1.4661 1.3415 0.0027 0.62531-0.02265 1.2052-0.08578 1.4351-0.32467 1.1821-1.266 2.0719-1.9549 1.8474-0.01074-0.0035-0.02703-0.01165-0.03824-0.0155-0.72255 1.6785-1.1081 3.5539-1.1477 5.6322 0.04704 2.4694 0.5762 4.6569 1.5875 6.5619 1.0113 1.905 2.4456 3.3985 4.3036 4.4803 1.858 1.0819 4.0216 1.6226 6.4911 1.6226 2.4694 0 4.6215-0.54079 6.4559-1.6226 1.858-1.0819 3.2928-2.5753 4.3041-4.4803 1.0348-1.9285 1.5756-4.1159 1.6226-6.5619-0.04704-2.4459-0.58782-4.6212-1.6226-6.5262-1.0013-1.9095-2.4185-3.4035-4.2499-4.4829z" fill="#fca311"/>
  <path d="m11.956 0-5.6771 1.8971c-6.2297 2.0818-5.8381 1.9296-5.8604 2.3201-0.01901 0.33223 0.04363 0.35204 1.4403 0.81757 1.4918 0.49724 1.3828 0.42339 1.1474 0.77686-0.36499 0.54827-0.59577 1.2582-0.73322 2.2558-0.07803 0.56628-0.08197 0.57774-0.23578 0.68097-0.4723 0.31701-0.64074 1.0444-0.36524 1.5771 0.0725 0.14021 0.41957 0.47183 0.49378 0.47183 0.06926 0 0.05735 0.17192-0.04684 0.67832-0.26722 1.2986-0.76073 2.2384-1.7432 3.3192-0.40274 0.443-0.41586 0.46419-0.33825 0.54996 0.16667 0.18418 1.0782 0.66882 1.5426 0.82014l-1.82e-4 9e-5c0.68891 0.2245 1.6303-0.665 1.955-1.8471 0.15543-0.56584 0.08857-3.2459-0.08811-3.5318-0.01246-0.0202 0.0427-0.10209 0.12269-0.18208 0.48547-0.48548 0.48158-1.247-0.0089-1.7374-0.2059-0.20589-0.21415-0.27714-0.10586-0.90889 0.30399-1.7729 0.71615-2.1384 3.8281-3.3949 4.2793-1.7278 4.8377-1.8986 5.0783-1.467 0.21917 0.39329 0.03762 0.67681-0.6689 0.90934-1.2455 0.41004-5.845 2.2289-5.8631 2.3187-0.01204 0.0602 5.9149 2.0376 6.1078 2.0376 0.08003 0 2.6794-0.84568 5.7764-1.8793 6.1053-2.0376 5.77-1.9062 5.7802-2.2651 0.0108-0.38012 0.36936-0.23815-5.8604-2.3201zm7.3425 7.1904c-0.03222 0-1.6395 0.527-3.5715 1.1711-4.3225 1.4411-3.23 1.4377-7.4702 0.024-1.8925-0.63097-3.4588-1.1294-3.4806-1.1075-0.06097 0.061-0.17143 0.74487-0.17127 1.0601 1.41e-4 0.27327 0.0051 0.28451 0.1807 0.40586 0.70462 0.48706 0.87124 1.6518 0.34602 2.4189l-0.16999 0.24821 0.18298 0.19104c0.88276 0.92189 3.1642 1.6244 5.8042 1.7873l9.8e-5 -9e-5c3.9416 0.24327 7.7686-0.91335 8.3221-2.515 0.10713-0.31002 0.13227-3.6838 0.02743-3.6838z" fill="#c37400" style="mix-blend-mode:normal"/>
 </g>
</svg>
